<svg width="24" height="25" viewBox="0 0 24 25" fill="none" xmlns="http://www.w3.org/2000/svg">
<path d="M16.3819 8.60669H15.2827C15.0436 8.60669 14.8163 8.72153 14.6757 8.91841L10.9913 14.0278L9.32252 11.7122C9.18189 11.5176 8.95689 11.4004 8.71549 11.4004H7.61626C7.46392 11.4004 7.37486 11.5739 7.46392 11.6981L10.3842 15.7481C10.4532 15.8444 10.5442 15.9228 10.6495 15.977C10.7549 16.0311 10.8717 16.0593 10.9901 16.0593C11.1086 16.0593 11.2253 16.0311 11.3307 15.977C11.436 15.9228 11.527 15.8444 11.596 15.7481L16.5319 8.90435C16.6233 8.78013 16.5343 8.60669 16.3819 8.60669Z" fill="#059669"/>
<path d="M12 1.83325C6.20156 1.83325 1.5 6.53481 1.5 12.3333C1.5 18.1317 6.20156 22.8333 12 22.8333C17.7984 22.8333 22.5 18.1317 22.5 12.3333C22.5 6.53481 17.7984 1.83325 12 1.83325ZM12 21.052C7.18594 21.052 3.28125 17.1473 3.28125 12.3333C3.28125 7.51919 7.18594 3.6145 12 3.6145C16.8141 3.6145 20.7188 7.51919 20.7188 12.3333C20.7188 17.1473 16.8141 21.052 12 21.052Z" fill="#059669"/>
</svg>
