<svg width="12" height="8" viewBox="0 0 12 8" fill="none" xmlns="http://www.w3.org/2000/svg">
<path d="M11.9135 7.80156L6.40412 0.20625C6.20412 -0.06875 5.79475 -0.06875 5.59631 0.20625L0.0853709 7.80156C0.0718089 7.82024 0.0636846 7.84231 0.0618983 7.86533C0.060112 7.88834 0.0647335 7.9114 0.0752507 7.93195C0.0857679 7.9525 0.10177 7.96974 0.121483 7.98175C0.141196 7.99376 0.16385 8.00008 0.186933 8H1.35881C1.4385 8 1.5135 7.96094 1.56037 7.89688L5.99943 1.77812L10.4385 7.89688C10.4854 7.96094 10.5604 8 10.6401 8H11.8119C11.9135 8 11.9729 7.88437 11.9135 7.80156Z" fill="#2563EB"/>
</svg>
