<svg width="44" height="42" viewBox="0 0 44 42" fill="none" xmlns="http://www.w3.org/2000/svg">
<path d="M25.0554 39.6424V32.3009C25.0554 31.3047 25.8628 30.4979 26.8583 30.4979C30.4107 30.4979 32.3432 26.8547 32.6115 19.6628H26.8583C25.8629 19.6628 25.0554 18.8549 25.0554 17.8599V2.35781C25.0554 1.36205 25.8628 0.555224 26.8583 0.555224H42.1969C43.1922 0.555224 44 1.36293 44 2.35781V17.86C44 21.3072 43.652 24.4706 42.9688 27.2644C42.267 30.1285 41.1897 32.6324 39.7675 34.7074C38.3049 36.8397 36.4737 38.5129 34.328 39.6782C32.166 40.851 29.6529 41.4462 26.8576 41.4462C25.8629 41.4454 25.0554 40.6378 25.0554 39.6424ZM1.80259 30.4973C0.807201 30.4973 0 31.3047 0 32.2995V39.6426C0 40.6378 0.807201 41.4448 1.80259 41.4448C4.59653 41.4448 7.1109 40.8495 9.27147 39.6769C11.4183 38.5117 13.2492 36.8398 14.7118 34.706C16.1348 32.631 17.212 30.127 17.9138 27.2615C18.5974 24.4677 18.9446 21.3042 18.9446 17.8585V2.3563C18.9446 1.36053 18.1367 0.553711 17.1417 0.553711H1.80259C0.807201 0.553711 0 1.36129 0 2.3563V17.8585C0 18.8541 0.807201 19.6615 1.80259 19.6615H7.47493C7.20998 26.8539 5.30529 30.4973 1.80259 30.4973Z" fill="#2563EB"/>
</svg>
