<svg width="220" height="50" viewBox="0 0 220 50" fill="none" xmlns="http://www.w3.org/2000/svg">
<path d="M6.45444 13.7128C6.45444 19.7802 6.45444 25.8477 6.45444 31.9152C6.45444 33.3714 6.45444 34.8276 6.45444 36.2838C6.45444 37.2546 5.9673 37.6187 5.1148 37.7401C3.89693 37.7401 2.67907 37.7401 1.46121 37.7401C0.486916 37.7401 -0.000244141 37.1333 -0.000244141 36.0411C-0.000244141 24.6342 -0.000244141 13.3487 -0.000244141 1.94183C-0.000244141 0.84968 0.486916 0.364258 1.46121 0.364258C3.16622 0.364258 4.87122 0.364258 6.57623 0.364258C7.55052 0.364258 8.03767 0.971022 8.40302 1.82047C11.2041 8.00932 13.8834 14.1982 16.6845 20.5084C17.0499 21.2365 17.2934 21.8432 17.7806 22.9354C18.9984 20.1443 20.0945 17.7173 21.1906 15.2903C23.1392 10.8004 25.2095 6.43178 27.1581 1.94183C27.6453 0.84968 28.376 0.364265 29.5938 0.485615C30.9335 0.606965 32.2731 0.485615 33.6128 0.485615C34.9524 0.485615 35.4396 0.849658 35.4396 2.18451C35.4396 13.4701 35.4396 24.7556 35.4396 36.0411C35.4396 37.4973 34.9524 37.8614 33.6128 37.8614C32.7603 37.8614 31.786 37.8614 30.9335 37.8614C29.2285 37.8614 28.8631 37.4974 28.8631 35.7985C28.8631 31.4299 28.8631 27.1826 28.8631 22.814C28.8631 19.9016 28.8631 16.8679 28.7413 13.8341C28.2542 14.9263 27.6453 16.0184 27.1581 17.1106C25.3313 21.2365 23.3827 25.241 21.556 29.3669C21.0688 30.459 20.4599 30.9445 19.242 30.9445C14.3705 30.8231 15.4666 31.4299 13.518 27.4253C11.4477 23.2994 9.62089 19.0521 7.55052 14.8049C7.42874 14.4408 7.18516 14.0768 6.94159 13.7128C6.57623 13.5914 6.57622 13.5914 6.45444 13.7128Z" fill="white"/>
<path d="M84.2761 18.0811C88.6604 20.3868 90.3654 23.5419 89.7564 28.5172C89.3911 32.4004 86.4682 35.5555 81.9621 36.769C80.6225 37.1331 79.161 37.3758 77.8214 37.3758C73.3153 37.4971 68.6874 37.3758 64.1813 37.3758C62.9635 37.3758 62.4763 36.6477 62.4763 35.5555C62.4763 24.27 62.4763 12.9844 62.4763 1.69889C62.4763 0.485392 63.0852 0 64.1813 0C69.1746 0 74.2896 -2.22235e-05 79.2828 0.242678C82.3275 0.364028 85.2504 1.33483 87.3207 4.00453C90.7307 8.37313 89.5129 14.6833 84.885 17.5957C84.7632 17.8384 84.5196 17.9598 84.2761 18.0811ZM69.5399 31.7937C72.8281 31.6723 75.9946 31.6723 79.161 31.3083C81.5968 31.0656 83.4235 28.6386 83.3018 26.4543C83.3018 23.7846 81.7185 21.843 79.0392 21.6003C75.8728 21.3576 72.7064 21.6003 69.5399 21.6003C69.5399 24.7554 69.5399 28.1532 69.5399 31.7937ZM69.5399 15.6541C72.8281 15.5328 76.1164 15.5328 79.4046 15.0474C81.3532 14.8047 82.4493 13.2271 82.8146 11.2855C83.0582 9.70798 82.3275 8.2518 81.1096 7.281C80.6225 6.91695 80.1353 6.67424 79.6482 6.55289C76.3599 5.82479 72.9499 6.18885 69.5399 6.18885C69.5399 9.34395 69.5399 12.3777 69.5399 15.6541Z" fill="white"/>
<path d="M188.647 27.7892C188.647 30.3376 188.647 32.8859 188.647 35.4343C188.647 37.2545 188.403 37.4972 186.577 37.4972C185.846 37.4972 185.115 37.4972 184.506 37.4972C182.679 37.3759 182.436 37.1332 182.436 35.4343C182.436 30.3376 182.436 25.2409 182.436 20.1442C182.436 19.1734 182.558 18.0812 182.801 17.1104C183.897 12.4991 187.185 10.4362 191.326 10.0721C194.493 9.70808 197.537 10.1935 200.095 12.2564C200.338 12.3778 200.826 12.2564 201.069 12.1351C205.21 9.46539 209.594 9.34405 214.1 11.0429C218.241 12.6205 219.824 16.1396 219.946 20.3869C220.068 25.6049 219.946 30.823 219.946 36.041C219.946 37.1332 219.459 37.6186 218.485 37.6186C217.388 37.6186 216.292 37.6186 215.196 37.6186C213.978 37.6186 213.613 37.0118 213.613 35.7983C213.613 30.9443 213.613 26.2117 213.613 21.3577C213.613 20.3869 213.369 19.4161 213.126 18.4453C212.395 16.625 210.934 15.8969 209.107 15.6542C207.402 15.5329 205.819 16.0183 204.966 17.7172C204.601 18.4453 204.357 19.4161 204.357 20.2655C204.357 25.3622 204.357 30.4589 204.357 35.5556C204.357 37.1332 203.992 37.4972 202.409 37.4972C201.678 37.4972 200.826 37.4972 200.095 37.4972C198.512 37.3759 198.268 37.1332 198.268 35.5556C198.268 30.4589 198.268 25.4836 198.268 20.3869C198.268 16.0183 194.493 15.0475 191.935 15.8969C190.23 16.5037 189.134 17.7172 189.134 19.5374C188.647 22.3285 188.769 25.1195 188.647 27.7892Z" fill="white"/>
<path d="M54.0731 35.7981C51.8809 37.2543 49.8105 37.7397 47.4966 37.6184C42.5034 37.3757 38.8498 33.9779 38.8498 29.0025C38.728 23.2991 38.8498 17.4743 38.8498 11.7708C38.8498 10.8 39.3369 10.3146 40.1894 10.3146C41.4073 10.1933 42.6251 10.1933 43.843 10.3146C44.8173 10.3146 45.0609 11.0427 45.0609 12.0135C45.0609 17.1102 45.0609 22.0856 45.0609 27.1823C45.0609 31.1868 47.862 32.5217 51.272 31.9149C53.2206 31.5509 54.1948 30.3374 54.1948 28.1531C54.1948 22.8137 54.1948 17.4743 54.1948 12.2563C54.1948 10.6787 54.5602 10.3146 56.0216 10.3146C59.6752 10.1933 59.797 10.1933 59.797 13.8338C59.797 21.9642 59.797 30.0947 59.797 38.1038C59.797 43.9286 57.3613 47.8118 52.2463 49.268C49.3234 50.2388 46.2787 50.1174 43.2341 49.632C42.8687 49.5107 42.3816 49.0253 42.2598 48.6612C42.138 47.5691 42.2598 46.4769 42.2598 45.5061C42.2598 44.6567 42.7469 44.2926 43.4777 44.414C45.1827 44.414 46.8877 44.5353 48.7145 44.414C52.1245 44.1713 53.7077 42.5937 54.0731 39.3173C54.1949 38.2251 54.0731 37.133 54.0731 35.7981Z" fill="white"/>
<path d="M172.693 31.915C172.693 26.8183 172.693 21.9643 172.693 17.2316C172.693 15.5327 172.693 13.8339 172.693 12.0136C172.693 10.6788 173.058 10.3147 174.52 10.1934C175.494 10.1934 176.59 10.1934 177.564 10.1934C178.539 10.1934 179.148 10.6787 179.148 11.7709C179.148 19.2946 179.148 26.9396 179.148 34.4633C179.148 35.3128 178.782 35.9195 177.93 36.2836C173.058 37.9825 168.065 38.7106 162.95 37.3757C158.566 36.2836 156.008 33.0071 155.886 28.3958C155.765 22.8138 155.886 17.2316 155.886 11.7709C155.886 10.6787 156.374 10.1934 157.47 10.1934C158.444 10.1934 159.418 10.1934 160.393 10.1934C161.854 10.1934 162.341 10.6788 162.341 12.135C162.341 17.1103 162.341 22.207 162.341 27.1823C162.341 30.4588 164.046 32.1577 167.334 32.1577C168.918 32.1577 170.744 32.0363 172.693 31.915Z" fill="white"/>
<path d="M129.215 24.634C129.215 20.8722 129.215 17.2317 129.215 13.4699C129.215 12.4991 129.459 11.8923 130.311 11.6496C132.625 11.0429 134.817 10.1934 137.253 9.95068C139.811 9.70798 142.612 9.95071 145.047 10.4361C149.188 11.4069 152.355 14.1979 152.355 20.2654C152.355 25.3621 152.355 30.4588 152.355 35.5555C152.355 36.769 151.867 37.2544 150.65 37.2544C149.675 37.2544 148.579 37.2544 147.605 37.1331C146.509 37.1331 146.022 36.5263 146.022 35.4342C146.022 30.7015 146.022 25.9689 146.022 21.2362C146.022 17.2317 144.073 15.2901 140.176 15.2901C139.08 15.2901 137.984 15.5328 136.888 15.5328C135.913 15.5328 135.67 16.0182 135.67 16.8676C135.67 22.9351 135.67 28.8813 135.67 34.9488C135.67 37.1331 135.548 37.2544 133.356 37.2544C128.484 37.2544 129.215 37.2544 129.215 33.2499C129.215 30.5802 129.215 27.6678 129.215 24.634Z" fill="white"/>
<path fill-rule="evenodd" clip-rule="evenodd" d="M105.14 7.71379C100.254 8.9319 95.9155 12.3923 93.8012 16.7573C91.1398 22.2518 91.3557 28.5 94.3867 33.7097C95.4781 35.5853 98.1981 38.4751 99.0852 38.7011C99.8702 38.9012 100.051 38.7224 101.929 35.8951C106.221 29.4333 107.793 22.9774 105.518 21.1546C104.171 20.0756 101.894 21.0116 101.442 22.83C101.347 23.2127 101.502 24.6285 101.808 26.1858C102.614 30.2787 102.512 30.538 100.921 28.4449C99.4924 26.5646 98.9602 25.2206 98.9602 23.4919C98.9602 21.6212 99.5418 20.3029 100.881 19.1396C102.103 18.0778 103.455 17.5821 106.03 17.2512C109.38 16.821 110.979 16.1884 113.304 14.3732C114.45 13.4781 117.525 9.84952 117.525 9.3923C117.525 8.99949 116.463 8.48203 114.51 7.92293C111.826 7.15518 107.747 7.06384 105.14 7.71379ZM117.941 12.1937C117.308 13.1823 115.978 14.9527 114.986 16.1279C113.302 18.1243 113.183 18.34 113.181 19.409C113.18 20.4417 112.638 24.7149 112.352 25.9428C112.147 26.8274 112.555 27.049 114.89 27.3214C118.338 27.7235 119.299 28.3849 118.882 30.0705C118.659 30.971 116.995 33.3521 115.192 35.35C114.279 36.3609 113.678 37.2105 113.838 37.2643C114.528 37.498 115.72 38.4851 115.796 38.886C115.87 39.2764 115.752 39.3055 114.712 39.1532C114.07 39.0594 113.169 38.8265 112.709 38.6358C110.988 37.9219 111.073 37.3917 113.424 34.2222C114.486 32.7911 115.354 31.5269 115.354 31.4131C115.354 31.2992 113.953 31.2061 112.241 31.2061H109.128L108.482 32.3253C107.682 33.7109 104.404 37.8499 103.073 39.1537C102.53 39.6861 102.086 40.3079 102.086 40.5352C102.086 42.0094 110.316 43.0637 114.327 42.1037C120.253 40.6853 125.335 35.4173 126.848 29.1245C127.402 26.8237 127.407 22.552 126.86 20.4307C126.156 17.7055 124.694 15.0163 122.888 13.1287C121.358 11.5293 119.876 10.389 119.335 10.3942C119.202 10.3954 118.575 11.2053 117.941 12.1937ZM109.371 11.3809C110.006 12.0257 110.087 12.2502 109.964 13.0339C109.675 14.876 107.327 15.7557 106.021 14.5106C105.222 13.7485 105.24 12.0639 106.055 11.2361C106.944 10.3339 108.403 10.3976 109.371 11.3809Z" fill="white"/>
</svg>
