<svg width="141" height="32" viewBox="0 0 141 32" fill="none" xmlns="http://www.w3.org/2000/svg">
<path d="M4.13686 8.77602C4.13686 12.6592 4.13686 16.5424 4.13686 20.4256C4.13686 21.3576 4.13686 22.2896 4.13686 23.2215C4.13686 23.8428 3.82465 24.0758 3.27828 24.1535C2.49774 24.1535 1.7172 24.1535 0.936657 24.1535C0.312225 24.1535 0 23.7652 0 23.0662C0 15.7658 0 8.54304 0 1.24263C0 0.543653 0.312225 0.232983 0.936657 0.232983C2.02941 0.232983 3.12217 0.232983 4.21492 0.232983C4.83935 0.232983 5.15157 0.621312 5.38573 1.16496C7.18097 5.12582 8.89816 9.08668 10.6934 13.1252C10.9276 13.5912 11.0837 13.9795 11.3959 14.6785C12.1764 12.8922 12.8789 11.3389 13.5814 9.78566C14.8303 6.9121 16.1572 4.1162 17.406 1.24263C17.7183 0.543653 18.1866 0.232987 18.9671 0.310651C19.8257 0.388315 20.6843 0.310651 21.5429 0.310651C22.4015 0.310651 22.7137 0.543638 22.7137 1.39794C22.7137 8.62069 22.7137 15.8434 22.7137 23.0662C22.7137 23.9982 22.4015 24.2311 21.5429 24.2311C20.9965 24.2311 20.3721 24.2311 19.8257 24.2311C18.733 24.2311 18.4988 23.9982 18.4988 22.9109C18.4988 20.115 18.4988 17.3967 18.4988 14.6008C18.4988 12.7369 18.4988 10.7953 18.4207 8.85369C18.1085 9.55266 17.7183 10.2516 17.406 10.9506C16.2352 13.5912 14.9864 16.1541 13.8156 18.7947C13.5033 19.4936 13.1131 19.8043 12.3325 19.8043C9.21037 19.7266 9.91286 20.115 8.66399 17.5521C7.33708 14.9115 6.16627 12.1932 4.83936 9.47499C4.7613 9.242 4.60519 9.00901 4.44909 8.77602C4.21492 8.69835 4.21492 8.69835 4.13686 8.77602Z" fill="#2563EB"/>
<path d="M54.0134 11.5719C56.8233 13.0475 57.9161 15.0668 57.5258 18.251C57.2917 20.7363 55.4184 22.7555 52.5304 23.5322C51.6718 23.7652 50.7351 23.9205 49.8765 23.9205C46.9885 23.9982 44.0225 23.9205 41.1345 23.9205C40.354 23.9205 40.0417 23.4545 40.0417 22.7555C40.0417 15.5328 40.0417 8.31004 40.0417 1.08729C40.0417 0.310651 40.432 0 41.1345 0C44.3347 0 47.613 -1.4223e-05 50.8132 0.155314C52.7645 0.232978 54.6378 0.854294 55.9648 2.5629C58.1503 5.3588 57.3697 9.39734 54.4037 11.2613C54.3256 11.4166 54.1695 11.4943 54.0134 11.5719ZM44.5689 20.3479C46.6763 20.2703 48.7057 20.2703 50.7351 20.0373C52.2962 19.882 53.467 18.3287 53.389 16.9307C53.389 15.2221 52.3743 13.9795 50.6571 13.8242C48.6277 13.6688 46.5983 13.8242 44.5689 13.8242C44.5689 15.8434 44.5689 18.018 44.5689 20.3479ZM44.5689 10.0186C46.6763 9.94098 48.7838 9.94098 50.8912 9.63033C52.1401 9.475 52.8426 8.46536 53.0767 7.22274C53.2329 6.21311 52.7645 5.28115 51.984 4.65984C51.6718 4.42685 51.3596 4.27151 51.0473 4.19385C48.9399 3.72787 46.7544 3.96087 44.5689 3.96087C44.5689 5.98013 44.5689 7.92172 44.5689 10.0186Z" fill="#2563EB"/>
<path d="M120.906 17.7851C120.906 19.416 120.906 21.0469 120.906 22.6779C120.906 23.8428 120.749 23.9982 119.579 23.9982C119.11 23.9982 118.642 23.9982 118.252 23.9982C117.081 23.9205 116.925 23.7652 116.925 22.6779C116.925 19.416 116.925 16.1541 116.925 12.8922C116.925 12.2709 117.003 11.5719 117.159 10.9506C117.861 7.9994 119.969 6.6791 122.623 6.44611C124.652 6.21312 126.603 6.52379 128.243 7.84407C128.399 7.92174 128.711 7.84407 128.867 7.7664C131.521 6.0578 134.331 5.98014 137.219 7.06743C139.873 8.07706 140.887 10.3293 140.965 13.0475C141.043 16.3871 140.965 19.7266 140.965 23.0662C140.965 23.7652 140.653 24.0758 140.029 24.0758C139.326 24.0758 138.624 24.0758 137.921 24.0758C137.141 24.0758 136.907 23.6875 136.907 22.9109C136.907 19.8043 136.907 16.7754 136.907 13.6689C136.907 13.0476 136.75 12.4262 136.594 11.8049C136.126 10.64 135.189 10.174 134.019 10.0187C132.926 9.94099 131.911 10.2517 131.365 11.339C131.131 11.8049 130.975 12.4262 130.975 12.9699C130.975 16.2318 130.975 19.4937 130.975 22.7555C130.975 23.7652 130.74 23.9982 129.726 23.9982C129.257 23.9982 128.711 23.9982 128.243 23.9982C127.228 23.9205 127.072 23.7652 127.072 22.7555C127.072 19.4937 127.072 16.3094 127.072 13.0475C127.072 10.2516 124.652 9.63034 123.013 10.174C121.92 10.5623 121.218 11.339 121.218 12.5039C120.906 14.2902 120.984 16.0764 120.906 17.7851Z" fill="#2563EB"/>
<path d="M34.6559 22.9109C33.251 23.8428 31.924 24.1535 30.441 24.0758C27.2408 23.9205 24.8992 21.7459 24.8992 18.5617C24.8211 14.9115 24.8992 11.1836 24.8992 7.53338C24.8992 6.91207 25.2114 6.60143 25.7578 6.60143C26.5383 6.52376 27.3189 6.52376 28.0994 6.60143C28.7238 6.60143 28.8799 7.06741 28.8799 7.68872C28.8799 10.9506 28.8799 14.1348 28.8799 17.3967C28.8799 19.9596 30.6752 20.8139 32.8607 20.4256C34.1096 20.1926 34.734 19.416 34.734 18.018C34.734 14.6008 34.734 11.1836 34.734 7.84405C34.734 6.83442 34.9681 6.60143 35.9048 6.60143C38.2464 6.52376 38.3245 6.52376 38.3245 8.85368C38.3245 14.0572 38.3245 19.2606 38.3245 24.3865C38.3245 28.1143 36.7634 30.5996 33.4851 31.5316C31.6118 32.1529 29.6605 32.0752 27.7091 31.7645C27.475 31.6869 27.1628 31.3762 27.0847 31.1432C27.0067 30.4443 27.0847 29.7453 27.0847 29.124C27.0847 28.5803 27.3969 28.3473 27.8652 28.425C28.958 28.425 30.0507 28.5027 31.2216 28.425C33.4071 28.2697 34.4218 27.26 34.6559 25.1631C34.734 24.4641 34.6559 23.7652 34.6559 22.9109Z" fill="#2563EB"/>
<path d="M110.68 20.4256C110.68 17.1637 110.68 14.0572 110.68 11.0283C110.68 9.94097 110.68 8.85369 110.68 7.68873C110.68 6.83442 110.915 6.60143 111.851 6.52377C112.476 6.52377 113.178 6.52377 113.803 6.52377C114.427 6.52377 114.817 6.83441 114.817 7.53339C114.817 12.3486 114.817 17.2414 114.817 22.0566C114.817 22.6002 114.583 22.9885 114.037 23.2215C110.915 24.3088 107.714 24.7748 104.436 23.9205C101.626 23.2215 99.987 21.1246 99.909 18.1734C99.8309 14.6008 99.909 11.0283 99.909 7.53339C99.909 6.83441 100.221 6.52377 100.924 6.52377C101.548 6.52377 102.173 6.52377 102.797 6.52377C103.734 6.52377 104.046 6.83443 104.046 7.7664C104.046 10.9506 104.046 14.2125 104.046 17.3967C104.046 19.4936 105.139 20.5809 107.246 20.5809C108.261 20.5809 109.432 20.5033 110.68 20.4256Z" fill="#2563EB"/>
<path d="M82.8152 15.7658C82.8152 13.3582 82.8152 11.0283 82.8152 8.6207C82.8152 7.99939 82.9713 7.61107 83.5177 7.45574C85.0007 7.06742 86.4057 6.52376 87.9668 6.36843C89.6059 6.2131 91.4012 6.36845 92.9622 6.6791C95.6161 7.30041 97.6455 9.08667 97.6455 12.9699C97.6455 16.2317 97.6455 19.4936 97.6455 22.7555C97.6455 23.5322 97.3333 23.8428 96.5527 23.8428C95.9283 23.8428 95.2258 23.8428 94.6014 23.7652C93.8989 23.7652 93.5867 23.3768 93.5867 22.6779C93.5867 19.649 93.5867 16.6201 93.5867 13.5912C93.5867 11.0283 92.3378 9.78566 89.8401 9.78566C89.1376 9.78566 88.4351 9.94097 87.7326 9.94097C87.1082 9.94097 86.9521 10.2516 86.9521 10.7953C86.9521 14.6785 86.9521 18.484 86.9521 22.3672C86.9521 23.7652 86.874 23.8428 85.4691 23.8428C82.3469 23.8428 82.8152 23.8428 82.8152 21.2799C82.8152 19.5713 82.8152 17.7074 82.8152 15.7658Z" fill="#2563EB"/>
<path fill-rule="evenodd" clip-rule="evenodd" d="M67.3853 4.93697C64.2539 5.71656 61.473 7.9312 60.1179 10.7248C58.4122 14.2413 58.5506 18.2402 60.4932 21.5744C61.1927 22.7748 62.9359 24.6242 63.5045 24.7689C64.0076 24.8969 64.1237 24.7825 65.3274 22.973C68.0781 18.8375 69.0854 14.7057 67.6271 13.5391C66.7637 12.8485 65.3046 13.4476 65.0152 14.6113C64.9543 14.8563 65.0532 15.7624 65.2496 16.759C65.766 19.3785 65.7008 19.5445 64.6812 18.2049C63.7655 17.0015 63.4244 16.1414 63.4244 15.035C63.4244 13.8377 63.7971 12.994 64.6553 12.2495C65.4384 11.5699 66.3048 11.2527 67.9552 11.0409C70.1025 10.7656 71.1273 10.3607 72.6172 9.19902C73.3519 8.62616 75.3229 6.30384 75.3229 6.01122C75.3229 5.75982 74.6423 5.42865 73.3902 5.07082C71.6701 4.57947 69.0556 4.521 67.3853 4.93697ZM75.5896 7.80409C75.1836 8.43682 74.3314 9.56985 73.6956 10.322C72.6159 11.5997 72.5399 11.7378 72.5389 12.4219C72.5382 13.0829 72.1906 15.8177 72.0075 16.6036C71.8758 17.1697 72.1374 17.3115 73.6339 17.4858C75.844 17.7432 76.4595 18.1665 76.1925 19.2453C76.0498 19.8216 74.9829 21.3455 73.8272 22.6241C73.2424 23.2711 72.8574 23.8148 72.9596 23.8493C73.4018 23.9988 74.1656 24.6306 74.2145 24.8872C74.262 25.137 74.1862 25.1557 73.5198 25.0582C73.1084 24.9982 72.5307 24.8491 72.236 24.727C71.1329 24.2702 71.1879 23.9308 72.6945 21.9024C73.3748 20.9864 73.9314 20.1774 73.9314 20.1045C73.9314 20.0316 73.0335 19.9721 71.9361 19.9721H69.9408L69.5267 20.6883C69.014 21.5751 66.9131 24.2241 66.0606 25.0585C65.7124 25.3993 65.4276 25.7972 65.4276 25.9427C65.4276 26.8862 70.7021 27.5609 73.273 26.9465C77.0708 26.0387 80.328 22.6672 81.298 18.6398C81.6527 17.1673 81.6563 14.4334 81.3054 13.0758C80.8546 11.3317 79.9172 9.6106 78.76 8.4025C77.7793 7.37888 76.8298 6.64913 76.4825 6.65242C76.3975 6.6532 75.9957 7.17152 75.5896 7.80409ZM70.0969 7.28389C70.5039 7.69657 70.5555 7.8403 70.4768 8.34184C70.2918 9.52079 68.7867 10.0838 67.95 9.28694C67.4379 8.79919 67.449 7.72102 67.9718 7.19126C68.5412 6.61386 69.4762 6.65461 70.0969 7.28389Z" fill="#2563EB"/>
</svg>
