<svg width="24" height="24" viewBox="0 0 24 24" fill="none" xmlns="http://www.w3.org/2000/svg">
<path fill-rule="evenodd" clip-rule="evenodd" d="M6 2C3.79086 2 2 3.79086 2 6V18C2 20.2091 3.79086 22 6 22H18C20.2091 22 22 20.2091 22 18V6C22 3.79086 20.2091 2 18 2H6ZM4 6C4 4.89543 4.89543 4 6 4H18C19.1046 4 20 4.89543 20 6V18C20 19.1046 19.1046 20 18 20H6C4.89543 20 4 19.1046 4 18V6Z" fill="white"/>
<path d="M13.2193 11.0206L17.9849 5.6001H16.8557L12.7159 10.3057L9.41183 5.6001H5.6001L10.5976 12.7164L5.6001 18.4001H6.72924L11.0983 13.4297L14.5884 18.4001H18.4001L13.2193 11.0206ZM11.6723 12.7788L11.1651 12.0698L7.13644 6.43303H8.87104L12.1233 10.9838L12.6283 11.6928L16.8552 17.6077H15.1206L11.6723 12.7788Z" fill="white"/>
</svg>
