<svg width="20" height="21" viewBox="0 0 20 21" fill="none" xmlns="http://www.w3.org/2000/svg">
<g clip-path="url(#clip0_57495_28296)">
<path d="M8.6112 1.79563V5.1327C8.6112 5.5855 8.24417 5.95223 7.79167 5.95223C6.17696 5.95223 5.29853 7.60825 5.17661 10.8773H7.79167C8.24412 10.8773 8.6112 11.2445 8.6112 11.6968L8.6112 18.7432C8.6112 19.1958 8.24417 19.5625 7.79167 19.5625L0.819586 19.5625C0.367193 19.5625 -1.90735e-06 19.1954 -1.90735e-06 18.7432V11.6967C-1.90735e-06 10.1298 0.158186 8.69191 0.468718 7.42199C0.787729 6.12016 1.27742 4.98202 1.92387 4.03885C2.5887 3.06961 3.42107 2.30904 4.39638 1.77936C5.37908 1.24629 6.52141 0.975754 7.79201 0.975754C8.24412 0.976097 8.6112 1.34318 8.6112 1.79563ZM19.1806 5.95252C19.6331 5.95252 20 5.5855 20 5.13333L20 1.79557C20 1.34318 19.6331 0.976385 19.1806 0.976385C17.9107 0.976385 16.7678 1.24698 15.7857 1.77999C14.8099 2.30961 13.9776 3.06956 13.3128 4.03948C12.666 4.98265 12.1764 6.12085 11.8573 7.42331C11.5466 8.69323 11.3888 10.1312 11.3888 11.6974L11.3888 18.7439C11.3888 19.1965 11.7561 19.5632 12.2083 19.5632H19.1806C19.6331 19.5632 20 19.1962 20 18.7439V11.6974C20 11.2449 19.6331 10.8779 19.1806 10.8779H16.6023C16.7227 7.6086 17.5885 5.95252 19.1806 5.95252Z" fill="#2563EB"/>
</g>
<defs>
<clipPath id="clip0_57495_28296">
<rect width="20" height="20" fill="white" transform="matrix(-1 0 0 -1 20 20.2695)"/>
</clipPath>
</defs>
</svg>
