<svg width="44" height="44" viewBox="0 0 44 44" fill="none" xmlns="http://www.w3.org/2000/svg">
<g clip-path="url(#clip0_57495_28240)">
<path d="M18.9446 3.35749V10.6991C18.9446 11.6952 18.1372 12.502 17.1417 12.502C13.5893 12.502 11.6568 16.1453 11.3885 23.3371H17.1417C18.1371 23.3371 18.9446 24.1451 18.9446 25.1401L18.9446 40.6421C18.9446 41.6379 18.1372 42.4447 17.1417 42.4447L1.80309 42.4447C0.807823 42.4447 -7.62939e-06 41.637 -7.62939e-06 40.6421V25.1399C-7.62939e-06 21.6927 0.348007 18.5293 1.03118 15.7355C1.73301 12.8715 2.81033 10.3676 4.23251 8.29259C5.69515 6.16026 7.52635 4.487 9.67204 3.3217C11.834 2.14896 14.3471 1.55377 17.1424 1.55377C18.1371 1.55453 18.9446 2.36211 18.9446 3.35749ZM42.1974 12.5027C43.1928 12.5027 44 11.6952 44 10.7005V3.35737C44 2.36211 43.1928 1.55516 42.1974 1.55516C39.4035 1.55516 36.8891 2.15048 34.7285 3.32309C32.5817 4.48826 30.7508 6.16013 29.2882 8.29397C27.8652 10.3689 26.788 12.873 26.0862 15.7384C25.4026 18.5322 25.0554 21.6957 25.0554 25.1415L25.0554 40.6436C25.0554 41.6394 25.8633 42.4462 26.8583 42.4462H42.1974C43.1928 42.4462 44 41.6386 44 40.6436V25.1415C44 24.1458 43.1928 23.3385 42.1974 23.3385H36.5251C36.79 16.146 38.6947 12.5027 42.1974 12.5027Z" fill="#2563EB"/>
</g>
<defs>
<clipPath id="clip0_57495_28240">
<rect width="44" height="44" fill="white" transform="matrix(-1 0 0 -1 44 44)"/>
</clipPath>
</defs>
</svg>
