<svg width="96" height="96" viewBox="0 0 96 96" fill="none" xmlns="http://www.w3.org/2000/svg">
<path d="M81 69C81 58.5375 74.8688 49.5 66 45.2906V29.7469C66 28.3312 65.5031 26.9625 64.5844 25.8844L50.2969 8.94375C49.6969 8.23125 48.8438 7.875 48 7.875C47.1562 7.875 46.3031 8.23125 45.7031 8.94375L31.4156 25.8844C30.5031 26.9647 30.0017 28.3327 30 29.7469V45.2906C21.1313 49.5 15 58.5375 15 69H29.6719C29.4563 69.675 29.3438 70.4062 29.3438 71.2312C29.3438 73.3031 30.0562 75.3281 31.35 76.9312C32.406 78.2424 33.8046 79.2354 35.3906 79.8C37.5562 84.8625 42.4781 88.125 48 88.125C50.7281 88.125 53.3719 87.3187 55.6313 85.8C57.8438 84.3187 59.5594 82.2469 60.6 79.8C62.1854 79.2388 63.5841 78.249 64.6406 76.9406C65.9361 75.3229 66.6435 73.3131 66.6469 71.2406C66.6469 70.4531 66.5437 69.7031 66.3562 69.0094H81V69ZM71.4656 58.2563C72.3469 59.625 73.0594 61.0969 73.575 62.625H65.625V52.3781C67.964 53.9045 69.9543 55.9076 71.4656 58.2563ZM36.375 45.2906V29.8875L48 16.1063L59.625 29.8875V62.625H36.375V45.2906ZM22.425 62.625C22.9406 61.0969 23.6531 59.625 24.5344 58.2563C26.0625 55.8938 28.05 53.8969 30.375 52.3781V62.625H22.425ZM58.8844 73.5188C58.3969 73.8 57.8344 73.9125 57.2812 73.8375L55.4531 73.6125L55.1906 75.4312C54.6844 78.9844 51.5906 81.6656 48 81.6656C44.4094 81.6656 41.3156 78.9844 40.8094 75.4312L40.5469 73.6031L38.7188 73.8375C38.163 73.9037 37.6007 73.7887 37.1156 73.5094C36.3 73.0406 35.7937 72.1688 35.7937 71.2219C35.7937 70.2281 36.3469 69.4031 37.1625 68.9906H58.8469C59.6719 69.4125 60.2156 70.2375 60.2156 71.2219C60.2062 72.1781 59.7 73.0594 58.8844 73.5188ZM43.5 37.5C43.5 38.6935 43.9741 39.8381 44.818 40.682C45.6619 41.5259 46.8065 42 48 42C49.1935 42 50.3381 41.5259 51.182 40.682C52.0259 39.8381 52.5 38.6935 52.5 37.5C52.5 36.3065 52.0259 35.1619 51.182 34.318C50.3381 33.4741 49.1935 33 48 33C46.8065 33 45.6619 33.4741 44.818 34.318C43.9741 35.1619 43.5 36.3065 43.5 37.5Z" fill="#2563EB"/>
</svg>
