<svg width="96" height="96" viewBox="0 0 96 96" fill="none" xmlns="http://www.w3.org/2000/svg">
<path d="M85.275 80.1094L60.9281 55.7625C64.7063 50.8781 66.75 44.9062 66.75 38.625C66.75 31.1063 63.8156 24.0562 58.5094 18.7406C53.2031 13.425 46.1344 10.5 38.625 10.5C31.1156 10.5 24.0469 13.4344 18.7406 18.7406C13.425 24.0469 10.5 31.1063 10.5 38.625C10.5 46.1344 13.4344 53.2031 18.7406 58.5094C24.0469 63.825 31.1063 66.75 38.625 66.75C44.9062 66.75 50.8688 64.7062 55.7531 60.9375L80.1 85.275C80.1714 85.3464 80.2562 85.4031 80.3495 85.4418C80.4428 85.4804 80.5428 85.5003 80.6438 85.5003C80.7447 85.5003 80.8447 85.4804 80.938 85.4418C81.0313 85.4031 81.1161 85.3464 81.1875 85.275L85.275 81.1969C85.3464 81.1255 85.4031 81.0407 85.4418 80.9474C85.4804 80.8541 85.5003 80.7541 85.5003 80.6531C85.5003 80.5521 85.4804 80.4521 85.4418 80.3588C85.4031 80.2655 85.3464 80.1808 85.275 80.1094ZM53.475 53.475C49.5 57.4406 44.2313 59.625 38.625 59.625C33.0187 59.625 27.75 57.4406 23.775 53.475C19.8094 49.5 17.625 44.2313 17.625 38.625C17.625 33.0187 19.8094 27.7406 23.775 23.775C27.75 19.8094 33.0187 17.625 38.625 17.625C44.2313 17.625 49.5094 19.8 53.475 23.775C57.4406 27.75 59.625 33.0187 59.625 38.625C59.625 44.2313 57.4406 49.5094 53.475 53.475Z" fill="#2563EB"/>
</svg>
